<svg width="20" height="18" viewBox="0 0 20 18" opacity="0.3" fill="none" xmlns="http://www.w3.org/2000/svg">
<g id="Vector" filter="url(#filter0_d_100201_452)">
<mask id="path-1-inside-1_100201_452" fill="white">
<path d="M7.75 10C8.05 10 8.25 9.8 8.25 9.5C8.25 9.2 8.05 9 7.75 9C7.45 9 7.25 9.2 7.25 9.5C7.25 9.8 7.45 10 7.75 10Z"/>
<path d="M17 2H15V0H14V2H6V0H5V2H3C2.4 2 2 2.4 2 3V14C2 14.5 2.4 15 3 15H17C17.5 15 18 14.5 18 14V3C18 2.4 17.5 2 17 2ZM17 14H3V7H17V14ZM3 6V3H5V5H6V3H14V5H15V3H17V6H3Z"/>
<path d="M10 10C10.3 10 10.5 9.8 10.5 9.5C10.5 9.2 10.3 9 10 9C9.7 9 9.5 9.2 9.5 9.5C9.5 9.8 9.7 10 10 10Z"/>
<path d="M12.25 10C12.55 10 12.75 9.8 12.75 9.5C12.75 9.2 12.55 9 12.25 9C11.95 9 11.75 9.2 11.75 9.5C11.75 9.8 11.95 10 12.25 10Z"/>
<path d="M7.75 11C7.45 11 7.25 11.2 7.25 11.5C7.25 11.8 7.45 12 7.75 12C8.05 12 8.25 11.8 8.25 11.5C8.25 11.2 8.05 11 7.75 11Z"/>
<path d="M5.5 10C5.8 10 6 9.8 6 9.5C6 9.2 5.8 9 5.5 9C5.2 9 5 9.2 5 9.5C5 9.8 5.2 10 5.5 10Z"/>
<path d="M5.5 11C5.2 11 5 11.2 5 11.5C5 11.8 5.2 12 5.5 12C5.8 12 6 11.8 6 11.5C6 11.2 5.8 11 5.5 11Z"/>
<path d="M10 11C9.7 11 9.5 11.2 9.5 11.5C9.5 11.8 9.7 12 10 12C10.3 12 10.5 11.8 10.5 11.5C10.5 11.2 10.3 11 10 11Z"/>
<path d="M12.25 11C11.95 11 11.75 11.2 11.75 11.5C11.75 11.8 11.95 12 12.25 12C12.55 12 12.75 11.8 12.75 11.5C12.75 11.2 12.55 11 12.25 11Z"/>
<path d="M14.5 10C14.8 10 15 9.8 15 9.5C15 9.2 14.8 9 14.5 9C14.2 9 14 9.2 14 9.5C14 9.8 14.2 10 14.5 10Z"/>
<path d="M14.5 11C14.2 11 14 11.2 14 11.5C14 11.8 14.2 12 14.5 12C14.8 12 15 11.8 15 11.5C15 11.2 14.8 11 14.5 11Z"/>
</mask>
<path d="M7.75 10C8.05 10 8.25 9.8 8.25 9.5C8.25 9.2 8.05 9 7.75 9C7.45 9 7.25 9.2 7.25 9.5C7.25 9.8 7.45 10 7.75 10Z" fill="black"/>
<path d="M17 2H15V0H14V2H6V0H5V2H3C2.4 2 2 2.4 2 3V14C2 14.5 2.4 15 3 15H17C17.5 15 18 14.5 18 14V3C18 2.4 17.5 2 17 2ZM17 14H3V7H17V14ZM3 6V3H5V5H6V3H14V5H15V3H17V6H3Z" fill="black"/>
<path d="M10 10C10.3 10 10.5 9.8 10.5 9.5C10.5 9.2 10.3 9 10 9C9.7 9 9.5 9.2 9.5 9.5C9.5 9.8 9.7 10 10 10Z" fill="black"/>
<path d="M12.25 10C12.55 10 12.75 9.8 12.75 9.5C12.75 9.2 12.55 9 12.25 9C11.95 9 11.75 9.2 11.75 9.5C11.75 9.8 11.95 10 12.25 10Z" fill="black"/>
<path d="M7.75 11C7.45 11 7.25 11.2 7.25 11.5C7.25 11.8 7.45 12 7.75 12C8.05 12 8.25 11.8 8.25 11.5C8.25 11.2 8.05 11 7.75 11Z" fill="black"/>
<path d="M5.5 10C5.8 10 6 9.8 6 9.5C6 9.2 5.8 9 5.5 9C5.2 9 5 9.2 5 9.5C5 9.8 5.2 10 5.5 10Z" fill="black"/>
<path d="M5.5 11C5.2 11 5 11.2 5 11.5C5 11.8 5.2 12 5.5 12C5.8 12 6 11.8 6 11.5C6 11.2 5.8 11 5.5 11Z" fill="black"/>
<path d="M10 11C9.7 11 9.5 11.2 9.5 11.5C9.5 11.8 9.7 12 10 12C10.3 12 10.5 11.8 10.5 11.5C10.5 11.2 10.3 11 10 11Z" fill="black"/>
<path d="M12.25 11C11.95 11 11.75 11.2 11.75 11.5C11.75 11.8 11.95 12 12.25 12C12.55 12 12.75 11.8 12.75 11.5C12.75 11.2 12.55 11 12.25 11Z" fill="black"/>
<path d="M14.5 10C14.8 10 15 9.8 15 9.5C15 9.2 14.8 9 14.5 9C14.2 9 14 9.2 14 9.5C14 9.8 14.2 10 14.5 10Z" fill="black"/>
<path d="M14.5 11C14.2 11 14 11.2 14 11.5C14 11.8 14.2 12 14.5 12C14.8 12 15 11.8 15 11.5C15 11.2 14.8 11 14.5 11Z" fill="black"/>
<path d="M15 2H14V3H15V2ZM15 0H16V-1H15V0ZM14 0V-1H13V0H14ZM14 2V3H15V2H14ZM6 2H5V3H6V2ZM6 0H7V-1H6V0ZM5 0V-1H4V0H5ZM5 2V3H6V2H5ZM17 14V15H18V14H17ZM3 14H2V15H3V14ZM3 7V6H2V7H3ZM17 7H18V6H17V7ZM3 6H2V7H3V6ZM3 3V2H2V3H3ZM5 3H6V2H5V3ZM5 5H4V6H5V5ZM6 5V6H7V5H6ZM6 3V2H5V3H6ZM14 3H15V2H14V3ZM14 5H13V6H14V5ZM15 5V6H16V5H15ZM15 3V2H14V3H15ZM17 3H18V2H17V3ZM17 6V7H18V6H17ZM7.75 11C8.12725 11 8.51933 10.8699 8.81961 10.5696C9.11989 10.2693 9.25 9.87725 9.25 9.5H7.25C7.25 9.42275 7.28011 9.28067 7.40539 9.15539C7.53067 9.03011 7.67275 9 7.75 9V11ZM9.25 9.5C9.25 9.12275 9.11989 8.73067 8.81961 8.43039C8.51933 8.13011 8.12725 8 7.75 8V10C7.67275 10 7.53067 9.96989 7.40539 9.84461C7.28011 9.71933 7.25 9.57725 7.25 9.5H9.25ZM7.75 8C7.37275 8 6.98067 8.13011 6.68039 8.43039C6.38011 8.73067 6.25 9.12275 6.25 9.5H8.25C8.25 9.57725 8.21989 9.71933 8.09461 9.84461C7.96933 9.96989 7.82725 10 7.75 10V8ZM6.25 9.5C6.25 9.87725 6.38011 10.2693 6.68039 10.5696C6.98067 10.8699 7.37275 11 7.75 11V9C7.82725 9 7.96933 9.03011 8.09461 9.15539C8.21989 9.28067 8.25 9.42275 8.25 9.5H6.25ZM17 1H15V3H17V1ZM16 2V0H14V2H16ZM15 -1H14V1H15V-1ZM13 0V2H15V0H13ZM14 1H6V3H14V1ZM7 2V0H5V2H7ZM6 -1H5V1H6V-1ZM4 0V2H6V0H4ZM5 1H3V3H5V1ZM3 1C2.47275 1 1.95567 1.18011 1.56789 1.56789C1.18011 1.95567 1 2.47275 1 3H3C3 2.96128 3.00634 2.9467 3.00522 2.9496C3.00474 2.95085 3.00288 2.95525 2.99877 2.96162C2.99464 2.96804 2.98907 2.97514 2.98211 2.98211C2.97514 2.98907 2.96804 2.99464 2.96162 2.99877C2.95525 3.00288 2.95085 3.00474 2.9496 3.00522C2.9467 3.00634 2.96128 3 3 3V1ZM1 14C1 14.9862 1.78385 16 3 16V14H1ZM3 16H17V14H3V16ZM17 16C17.5752 16 18.0668 15.7225 18.3946 15.3946C18.7225 15.0668 19 14.5752 19 14H17C17 13.9791 17.0026 13.9638 17.0047 13.9549C17.0068 13.9461 17.0086 13.9428 17.0079 13.9443C17.0072 13.9458 17.0047 13.9506 16.9997 13.9577C16.9947 13.9648 16.9882 13.9726 16.9804 13.9804C16.9726 13.9882 16.9648 13.9947 16.9577 13.9997C16.9506 14.0047 16.9458 14.0072 16.9443 14.0079C16.9428 14.0086 16.9461 14.0068 16.9549 14.0047C16.9638 14.0026 16.9791 14 17 14V16ZM19 3C19 1.78385 17.9862 1 17 1V3H19ZM17 13H3V15H17V13ZM4 14V7H2V14H4ZM3 8H17V6H3V8ZM16 7V14H18V7H16ZM4 6V3H2V6H4ZM3 4H5V2H3V4ZM4 3V5H6V3H4ZM5 6H6V4H5V6ZM7 5V3H5V5H7ZM6 4H14V2H6V4ZM13 3V5H15V3H13ZM14 6H15V4H14V6ZM16 5V3H14V5H16ZM15 4H17V2H15V4ZM16 3V6H18V3H16ZM17 5H3V7H17V5ZM10 11C10.3772 11 10.7693 10.8699 11.0696 10.5696C11.3699 10.2693 11.5 9.87725 11.5 9.5H9.5C9.5 9.42275 9.53011 9.28067 9.65539 9.15539C9.78067 9.03011 9.92275 9 10 9V11ZM11.5 9.5C11.5 9.12275 11.3699 8.73067 11.0696 8.43039C10.7693 8.13011 10.3772 8 10 8V10C9.92275 10 9.78067 9.96989 9.65539 9.84461C9.53011 9.71933 9.5 9.57725 9.5 9.5H11.5ZM10 8C9.62275 8 9.23067 8.13011 8.93039 8.43039C8.63011 8.73067 8.5 9.12275 8.5 9.5H10.5C10.5 9.57725 10.4699 9.71933 10.3446 9.84461C10.2193 9.96989 10.0772 10 10 10V8ZM8.5 9.5C8.5 9.87725 8.63011 10.2693 8.93039 10.5696C9.23067 10.8699 9.62275 11 10 11V9C10.0772 9 10.2193 9.03011 10.3446 9.15539C10.4699 9.28067 10.5 9.42275 10.5 9.5H8.5ZM12.25 11C12.6272 11 13.0193 10.8699 13.3196 10.5696C13.6199 10.2693 13.75 9.87725 13.75 9.5H11.75C11.75 9.42275 11.7801 9.28067 11.9054 9.15539C12.0307 9.03011 12.1728 9 12.25 9V11ZM13.75 9.5C13.75 9.12275 13.6199 8.73067 13.3196 8.43039C13.0193 8.13011 12.6272 8 12.25 8V10C12.1728 10 12.0307 9.96989 11.9054 9.84461C11.7801 9.71933 11.75 9.57725 11.75 9.5H13.75ZM12.25 8C11.8728 8 11.4807 8.13011 11.1804 8.43039C10.8801 8.73067 10.75 9.12275 10.75 9.5H12.75C12.75 9.57725 12.7199 9.71933 12.5946 9.84461C12.4693 9.96989 12.3272 10 12.25 10V8ZM10.75 9.5C10.75 9.87725 10.8801 10.2693 11.1804 10.5696C11.4807 10.8699 11.8728 11 12.25 11V9C12.3272 9 12.4693 9.03011 12.5946 9.15539C12.7199 9.28067 12.75 9.42275 12.75 9.5H10.75ZM7.75 10C7.37275 10 6.98067 10.1301 6.68039 10.4304C6.38011 10.7307 6.25 11.1228 6.25 11.5H8.25C8.25 11.5772 8.21989 11.7193 8.09461 11.8446C7.96933 11.9699 7.82725 12 7.75 12V10ZM6.25 11.5C6.25 11.8772 6.38011 12.2693 6.68039 12.5696C6.98067 12.8699 7.37275 13 7.75 13V11C7.82725 11 7.96933 11.0301 8.09461 11.1554C8.21989 11.2807 8.25 11.4228 8.25 11.5H6.25ZM7.75 13C8.12725 13 8.51933 12.8699 8.81961 12.5696C9.11989 12.2693 9.25 11.8772 9.25 11.5H7.25C7.25 11.4228 7.28011 11.2807 7.40539 11.1554C7.53067 11.0301 7.67275 11 7.75 11V13ZM9.25 11.5C9.25 11.1228 9.11989 10.7307 8.81961 10.4304C8.51933 10.1301 8.12725 10 7.75 10V12C7.67275 12 7.53067 11.9699 7.40539 11.8446C7.28011 11.7193 7.25 11.5772 7.25 11.5H9.25ZM5.5 11C5.87725 11 6.26933 10.8699 6.56961 10.5696C6.86989 10.2693 7 9.87725 7 9.5H5C5 9.42275 5.03011 9.28067 5.15539 9.15539C5.28067 9.03011 5.42275 9 5.5 9V11ZM7 9.5C7 9.12275 6.86989 8.73067 6.56961 8.43039C6.26933 8.13011 5.87725 8 5.5 8V10C5.42275 10 5.28067 9.96989 5.15539 9.84461C5.03011 9.71933 5 9.57725 5 9.5H7ZM5.5 8C5.12275 8 4.73067 8.13011 4.43039 8.43039C4.13011 8.73067 4 9.12275 4 9.5H6C6 9.57725 5.96989 9.71933 5.84461 9.84461C5.71933 9.96989 5.57725 10 5.5 10V8ZM4 9.5C4 9.87725 4.13011 10.2693 4.43039 10.5696C4.73067 10.8699 5.12275 11 5.5 11V9C5.57725 9 5.71933 9.03011 5.84461 9.15539C5.96989 9.28067 6 9.42275 6 9.5H4ZM5.5 10C5.12275 10 4.73067 10.1301 4.43039 10.4304C4.13011 10.7307 4 11.1228 4 11.5H6C6 11.5772 5.96989 11.7193 5.84461 11.8446C5.71933 11.9699 5.57725 12 5.5 12V10ZM4 11.5C4 11.8772 4.13011 12.2693 4.43039 12.5696C4.73067 12.8699 5.12275 13 5.5 13V11C5.57725 11 5.71933 11.0301 5.84461 11.1554C5.96989 11.2807 6 11.4228 6 11.5H4ZM5.5 13C5.87725 13 6.26933 12.8699 6.56961 12.5696C6.86989 12.2693 7 11.8772 7 11.5H5C5 11.4228 5.03011 11.2807 5.15539 11.1554C5.28067 11.0301 5.42275 11 5.5 11V13ZM7 11.5C7 11.1228 6.86989 10.7307 6.56961 10.4304C6.26933 10.1301 5.87725 10 5.5 10V12C5.42275 12 5.28067 11.9699 5.15539 11.8446C5.03011 11.7193 5 11.5772 5 11.5H7ZM10 10C9.62275 10 9.23067 10.1301 8.93039 10.4304C8.63011 10.7307 8.5 11.1228 8.5 11.5H10.5C10.5 11.5772 10.4699 11.7193 10.3446 11.8446C10.2193 11.9699 10.0772 12 10 12V10ZM8.5 11.5C8.5 11.8772 8.63011 12.2693 8.93039 12.5696C9.23067 12.8699 9.62275 13 10 13V11C10.0772 11 10.2193 11.0301 10.3446 11.1554C10.4699 11.2807 10.5 11.4228 10.5 11.5H8.5ZM10 13C10.3772 13 10.7693 12.8699 11.0696 12.5696C11.3699 12.2693 11.5 11.8772 11.5 11.5H9.5C9.5 11.4228 9.53011 11.2807 9.65539 11.1554C9.78067 11.0301 9.92275 11 10 11V13ZM11.5 11.5C11.5 11.1228 11.3699 10.7307 11.0696 10.4304C10.7693 10.1301 10.3772 10 10 10V12C9.92275 12 9.78067 11.9699 9.65539 11.8446C9.53011 11.7193 9.5 11.5772 9.5 11.5H11.5ZM12.25 10C11.8728 10 11.4807 10.1301 11.1804 10.4304C10.8801 10.7307 10.75 11.1228 10.75 11.5H12.75C12.75 11.5772 12.7199 11.7193 12.5946 11.8446C12.4693 11.9699 12.3272 12 12.25 12V10ZM10.75 11.5C10.75 11.8772 10.8801 12.2693 11.1804 12.5696C11.4807 12.8699 11.8728 13 12.25 13V11C12.3272 11 12.4693 11.0301 12.5946 11.1554C12.7199 11.2807 12.75 11.4228 12.75 11.5H10.75ZM12.25 13C12.6272 13 13.0193 12.8699 13.3196 12.5696C13.6199 12.2693 13.75 11.8772 13.75 11.5H11.75C11.75 11.4228 11.7801 11.2807 11.9054 11.1554C12.0307 11.0301 12.1728 11 12.25 11V13ZM13.75 11.5C13.75 11.1228 13.6199 10.7307 13.3196 10.4304C13.0193 10.1301 12.6272 10 12.25 10V12C12.1728 12 12.0307 11.9699 11.9054 11.8446C11.7801 11.7193 11.75 11.5772 11.75 11.5H13.75ZM14.5 11C14.8772 11 15.2693 10.8699 15.5696 10.5696C15.8699 10.2693 16 9.87725 16 9.5H14C14 9.42275 14.0301 9.28067 14.1554 9.15539C14.2807 9.03011 14.4228 9 14.5 9V11ZM16 9.5C16 9.12275 15.8699 8.73067 15.5696 8.43039C15.2693 8.13011 14.8772 8 14.5 8V10C14.4228 10 14.2807 9.96989 14.1554 9.84461C14.0301 9.71933 14 9.57725 14 9.5H16ZM14.5 8C14.1228 8 13.7307 8.13011 13.4304 8.43039C13.1301 8.73067 13 9.12275 13 9.5H15C15 9.57725 14.9699 9.71933 14.8446 9.84461C14.7193 9.96989 14.5772 10 14.5 10V8ZM13 9.5C13 9.87725 13.1301 10.2693 13.4304 10.5696C13.7307 10.8699 14.1228 11 14.5 11V9C14.5772 9 14.7193 9.03011 14.8446 9.15539C14.9699 9.28067 15 9.42275 15 9.5H13ZM14.5 10C14.1228 10 13.7307 10.1301 13.4304 10.4304C13.1301 10.7307 13 11.1228 13 11.5H15C15 11.5772 14.9699 11.7193 14.8446 11.8446C14.7193 11.9699 14.5772 12 14.5 12V10ZM13 11.5C13 11.8772 13.1301 12.2693 13.4304 12.5696C13.7307 12.8699 14.1228 13 14.5 13V11C14.5772 11 14.7193 11.0301 14.8446 11.1554C14.9699 11.2807 15 11.4228 15 11.5H13ZM14.5 13C14.8772 13 15.2693 12.8699 15.5696 12.5696C15.8699 12.2693 16 11.8772 16 11.5H14C14 11.4228 14.0301 11.2807 14.1554 11.1554C14.2807 11.0301 14.4228 11 14.5 11V13ZM16 11.5C16 11.1228 15.8699 10.7307 15.5696 10.4304C15.2693 10.1301 14.8772 10 14.5 10V12C14.4228 12 14.2807 11.9699 14.1554 11.8446C14.0301 11.7193 14 11.5772 14 11.5H16ZM1 3V14H3V3H1ZM19 14V3H17V14H19Z" fill="black" mask="url(#path-1-inside-1_100201_452)"/>
</g>
<defs>
<filter id="filter0_d_100201_452" x="-2" y="0" width="24" height="23" filterUnits="userSpaceOnUse" color-interpolation-filters="sRGB">
<feFlood flood-opacity="0" result="BackgroundImageFix"/>
<feColorMatrix in="SourceAlpha" type="matrix" values="0 0 0 0 0 0 0 0 0 0 0 0 0 0 0 0 0 0 127 0" result="hardAlpha"/>
<feOffset dy="4"/>
<feGaussianBlur stdDeviation="2"/>
<feComposite in2="hardAlpha" operator="out"/>
<feColorMatrix type="matrix" values="0 0 0 0 0 0 0 0 0 0 0 0 0 0 0 0 0 0 0.25 0"/>
<feBlend mode="normal" in2="BackgroundImageFix" result="effect1_dropShadow_100201_452"/>
<feBlend mode="normal" in="SourceGraphic" in2="effect1_dropShadow_100201_452" result="shape"/>
</filter>
</defs>
</svg>
